<?xml version="1.0" standalone="no"?>
<!DOCTYPE svg PUBLIC "-//W3C//DTD SVG 20010904//EN"
 "http://www.w3.org/TR/2001/REC-SVG-20010904/DTD/svg10.dtd">
<svg version="1.0" xmlns="http://www.w3.org/2000/svg"
 width="444.000000pt" height="420.000000pt" viewBox="0 0 444.000000 420.000000"
 preserveAspectRatio="xMidYMid meet">

<g transform="translate(0.000000,420.000000) scale(0.100000,-0.100000)"
fill="#000000" stroke="none">
<path d="M1625 3676 c-28 -13 -88 -35 -135 -51 -273 -90 -371 -155 -475 -313
-24 -37 -30 -41 -38 -27 -5 10 -7 34 -4 54 l6 36 -29 -32 c-36 -40 -54 -103
-46 -165 7 -52 2 -58 -64 -72 -30 -6 -70 -41 -70 -61 0 -11 8 -13 29 -9 22 5
34 1 51 -16 20 -20 20 -23 6 -39 -8 -9 -26 -39 -38 -66 -20 -45 -23 -64 -22
-180 1 -153 22 -242 86 -377 39 -84 42 -87 62 -73 11 8 33 15 48 15 22 0 32
-8 47 -37 10 -21 22 -48 25 -61 l7 -22 -37 25 c-21 14 -51 25 -70 25 -53 0
-43 -26 20 -54 57 -26 77 -49 139 -166 15 -30 35 -62 43 -71 21 -23 17 -56 -8
-73 -31 -22 -47 -20 -93 10 l-40 26 33 -31 c34 -33 65 -38 106 -20 40 19 73 2
161 -81 65 -61 173 -149 203 -166 1 -1 0 -21 -4 -45 -5 -29 -17 -52 -37 -70
-16 -15 -25 -29 -20 -32 5 -4 8 -20 5 -36 -9 -66 81 -139 396 -316 97 -54 179
-95 187 -91 17 6 69 85 108 162 33 65 50 161 41 230 l-6 55 68 72 c38 40 90
95 116 123 l46 50 -56 -4 -56 -5 38 52 c49 67 91 168 107 256 7 39 17 76 22
83 5 6 28 12 52 12 36 0 44 4 54 28 l13 27 -22 -22 c-11 -13 -25 -23 -30 -23
-17 0 -41 32 -36 49 8 27 26 182 26 227 0 35 6 47 34 72 25 22 31 33 24 46
-11 20 -27 20 -50 -1 -21 -19 -19 -36 -22 222 -2 144 -3 154 -35 235 -18 47
-41 116 -52 154 -34 126 -84 185 -213 252 -31 16 -56 32 -56 36 0 3 13 9 29
13 16 3 35 13 42 21 9 11 7 14 -14 14 -47 0 -156 40 -172 63 -35 50 -133 141
-177 163 -63 32 -83 31 -98 -6 -19 -46 -56 -80 -86 -80 -28 0 -29 3 -8 84 7
31 3 31 -61 2z m295 -654 c57 -26 190 -151 190 -178 0 -7 -12 -16 -27 -20 -80
-18 -101 -25 -106 -38 -12 -30 17 -37 92 -21 75 16 103 11 115 -20 8 -22 36
-19 36 5 0 22 29 27 47 9 6 -6 19 -9 28 -7 16 3 15 7 -9 36 -15 17 -34 32 -41
32 -7 0 -23 9 -36 20 -20 16 -21 19 -6 20 23 0 22 32 -3 111 -10 35 -17 66
-14 69 16 16 80 -110 116 -229 15 -52 39 -113 52 -135 13 -23 27 -59 30 -81 4
-22 21 -87 37 -144 39 -141 39 -231 0 -372 -39 -137 -65 -193 -148 -319 -78
-118 -151 -192 -220 -222 -66 -29 -159 -22 -245 20 -230 113 -322 199 -462
431 -80 132 -91 161 -111 298 -9 58 -19 111 -22 116 -3 5 -7 39 -8 76 -2 36
-10 93 -19 126 -49 192 30 365 186 403 134 33 284 -4 424 -103 55 -40 64 -43
64 -26 0 10 5 21 11 23 10 3 -3 43 -48 147 -7 17 18 10 97 -27z m130 -1709 c0
-24 -37 -135 -43 -127 -3 5 -12 38 -20 72 l-14 62 38 0 c22 0 39 -3 39 -7z"/>
<path d="M1508 2730 c-114 -20 -185 -56 -213 -110 -22 -43 -2 -45 48 -7 48 36
92 51 208 67 77 11 101 23 92 46 -6 16 -56 17 -135 4z"/>
<path d="M2117 2626 c-22 -8 -50 -25 -64 -38 -29 -26 -63 -93 -62 -123 0 -12
5 -4 13 17 27 77 65 113 131 128 69 16 138 -15 183 -80 16 -24 22 -28 22 -15
0 11 -10 33 -22 51 -40 58 -132 85 -201 60z"/>
<path d="M2114 2576 c-60 -26 -80 -86 -49 -145 17 -34 98 -71 100 -46 1 15 75
85 76 72 0 -7 4 -2 9 10 15 36 -9 81 -55 103 -48 23 -42 23 -81 6z m3 -47 c14
-14 6 -39 -12 -39 -18 0 -28 17 -21 35 6 18 18 19 33 4z"/>
<path d="M1463 2511 c-76 -35 -125 -109 -110 -168 3 -12 5 -9 6 10 1 37 45
104 84 127 93 57 207 25 262 -75 l17 -30 -7 29 c-10 45 -41 82 -88 105 -53 26
-109 26 -164 2z"/>
<path d="M1471 2454 c-54 -45 -49 -127 11 -168 35 -25 57 -19 103 29 25 25 45
39 48 32 8 -25 13 30 5 61 -18 67 -111 93 -167 46z m39 -43 c0 -27 -19 -36
-37 -18 -18 18 -9 37 18 37 12 0 19 -7 19 -19z"/>
<path d="M2017 2233 c-7 -37 -58 -76 -97 -75 -22 0 -67 16 -112 40 -5 2 -8 -3
-8 -11 0 -26 41 -66 80 -78 34 -10 44 -9 87 12 55 27 84 81 66 121 -9 21 -10
21 -16 -9z"/>
<path d="M2175 2095 c-11 -8 -52 -21 -91 -29 -40 -8 -90 -24 -112 -35 -30 -15
-60 -21 -109 -21 -37 0 -101 -7 -142 -15 -55 -12 -76 -13 -87 -4 -8 6 -22 8
-31 4 -16 -6 -16 -8 -2 -18 8 -7 23 -24 32 -38 18 -28 93 -73 142 -86 17 -4
64 -7 105 -7 59 0 87 6 130 26 74 35 143 98 164 150 10 24 22 51 27 60 16 32
8 36 -26 13z m-47 -80 c14 -14 -24 -24 -173 -50 -88 -14 -169 -29 -180 -32
-18 -4 -18 -4 2 11 12 9 73 28 135 42 62 14 127 29 143 33 31 8 63 6 73 -4z"/>
<path d="M1765 1811 c22 -10 56 -21 75 -24 38 -6 23 2 -45 23 -66 21 -72 21
-30 1z"/>
<path d="M3710 2865 c-46 -91 -81 -167 -78 -170 3 -3 42 69 88 160 45 92 80
168 78 171 -2 2 -42 -71 -88 -161z"/>
<path d="M3950 2932 c-24 -42 -49 -84 -56 -92 -24 -29 -134 -228 -134 -241 0
-8 9 0 19 16 55 90 181 307 200 344 38 74 17 55 -29 -27z"/>
<path d="M3171 2780 c-1 -8 20 -46 47 -84 l47 -68 6 -167 c7 -169 13 -203 55
-303 30 -73 32 -118 4 -118 -19 0 -20 -7 -20 -151 0 -87 4 -159 11 -170 8 -15
6 -37 -7 -87 -15 -55 -18 -100 -16 -254 3 -180 4 -189 31 -255 52 -124 82
-186 180 -383 54 -107 111 -229 127 -270 15 -41 32 -77 36 -80 4 -3 9 -15 11
-25 2 -11 29 -98 61 -192 l58 -173 64 0 c35 0 64 1 64 3 0 20 -60 215 -95 307
l-45 121 28 24 c59 49 99 171 108 330 5 84 1 127 -25 275 -17 96 -38 244 -46
329 -16 154 -39 241 -84 315 -12 20 -16 38 -11 51 8 22 9 21 -16 175 -12 74
-22 110 -35 121 -17 16 -16 17 28 34 60 23 119 85 182 188 27 45 91 136 140
202 50 65 91 124 91 129 0 6 -10 -4 -22 -22 -13 -18 -54 -72 -93 -120 -38 -48
-90 -119 -116 -158 -55 -83 -126 -157 -166 -172 -15 -6 -50 -13 -76 -17 -54
-7 -68 -26 -43 -54 16 -18 14 -19 -55 -25 -39 -4 -100 -4 -135 -1 l-64 7 0 64
c0 46 -6 73 -20 96 -11 18 -20 44 -20 58 0 14 -9 52 -20 84 -14 40 -20 86 -20
145 0 47 -3 109 -6 136 -6 45 -12 54 -56 88 -27 21 -53 48 -58 60 -5 13 -9 16
-9 7z"/>
<path d="M4026 2723 c-143 -203 -166 -237 -166 -245 0 -21 26 12 113 145 107
163 110 167 104 167 -2 0 -25 -30 -51 -67z"/>
<path d="M3506 2723 c-6 -14 -5 -15 5 -6 7 7 10 15 7 18 -3 3 -9 -2 -12 -12z"/>
<path d="M901 2184 c0 -11 3 -14 6 -6 3 7 2 16 -1 19 -3 4 -6 -2 -5 -13z"/>
<path d="M2780 843 c-1 -19 64 -332 68 -329 14 14 -43 336 -60 336 -4 0 -8 -3
-8 -7z"/>
</g>
</svg>
